<?xml version="1.0" standalone="no"?><!DOCTYPE svg PUBLIC "-//W3C//DTD SVG 1.1//EN" "http://www.w3.org/Graphics/SVG/1.1/DTD/svg11.dtd"><svg class="icon" width="200px" height="199.80px" viewBox="0 0 1025 1024" version="1.1" xmlns="http://www.w3.org/2000/svg"><path d="M946.618182 167.563636h-868.072727C35.165091 167.563636 0 202.728727 0 246.109091v509.672727c0 43.380364 35.165091 78.545455 78.545455 78.545455h868.072727c43.380364 0 78.545455-35.165091 78.545454-78.545455v-509.672727c0-43.380364-35.165091-78.545455-78.545454-78.545455z m-868.072727 64h868.072727c8.033745 0 14.545455 6.511709 14.545454 14.545455v509.672727c0 8.033745-6.511709 14.545455-14.545454 14.545455h-868.072727c-8.033745 0-14.545455-6.511709-14.545455-14.545455v-509.672727c0-8.033745 6.511709-14.545455 14.545455-14.545455z" fill="#000000" /><path d="M147.779491 106.472727v162.909091c0 17.673309 14.326691 32 32 32s32-14.326691 32-32v-162.909091c0-17.673309-14.326691-32-32-32s-32 14.326691-32 32z m0 325.818182v162.909091c0 17.673309 14.326691 32 32 32s32-14.326691 32-32v-162.909091c0-17.673309-14.326691-32-32-32s-32 14.326691-32 32z m0 325.818182v159.418182c0 17.673309 14.326691 32 32 32s32-14.326691 32-32v-159.418182c0-17.673309-14.326691-32-32-32s-32 14.326691-32 32zM813.384145 106.472727v162.909091c0 17.673309 14.326691 32 32 32s32-14.326691 32-32v-162.909091c0-17.673309-14.326691-32-32-32s-32 14.326691-32 32z m0 325.818182v162.909091c0 17.673309 14.326691 32 32 32s32-14.326691 32-32v-162.909091c0-17.673309-14.326691-32-32-32s-32 14.326691-32 32z m0 325.818182v159.418182c0 17.673309 14.326691 32 32 32s32-14.326691 32-32v-159.418182c0-17.673309-14.326691-32-32-32s-32 14.326691-32 32zM346.145745 352.659782v318.994618c0 25.120582 27.621236 40.445673 48.935564 27.149964l268.059927-167.218037c20.590545-12.844218 19.948218-43.038255-1.170618-54.995782L393.911855 324.813964c-21.331782-12.078545-47.767273 3.331491-47.767273 27.845818z m63.998837 54.891054l173.463273 98.216728-173.463273 108.208872V407.550836z" fill="#000000" /></svg>